<svg width="24" height="24" viewBox="0 0 24 24" fill="none" xmlns="http://www.w3.org/2000/svg">
<path d="M6 15V9H8V8H10V7H12V17H10V16H8V15H6Z" fill="white"/>
<path d="M15 10H16V9H15V10Z" fill="black"/>
<path d="M16 11H17V10H16V11Z" fill="black"/>
<path d="M18 13H19V12H18V13Z" fill="black"/>
<path d="M19 14H20V13H19V14Z" fill="black"/>
<path d="M15 14H16V13H15V14Z" fill="black"/>
<path d="M16 13H17V12H16V13Z" fill="black"/>
<path d="M17 12H18V11H17V12Z" fill="black"/>
<path d="M18 11H19V10H18V11Z" fill="black"/>
<path d="M19 10H20V9H19V10Z" fill="black"/>
<path d="M10 8V7H8V8H10Z" fill="black"/>
<path d="M8 9V8H6V9H8Z" fill="black"/>
<path d="M6 9H5V15H6V9Z" fill="black"/>
<path d="M6 15V16H8V15H6Z" fill="black"/>
<path d="M8 16V17H10V16H8Z" fill="black"/>
<path d="M10 17V18H12V17H10Z" fill="black"/>
<path d="M12 17H13V7H12V17Z" fill="black"/>
<path d="M12 7V6H10V7H12Z" fill="black"/>
</svg>
